<svg width="26" height="29" viewBox="0 0 26 29" fill="none" xmlns="http://www.w3.org/2000/svg">
<path fill-rule="evenodd" clip-rule="evenodd" d="M24.8524 14.3795C24.8524 13.3895 24.7722 12.4375 24.6234 11.5237H12.7617V16.9243H19.5398C19.2479 18.6696 18.3605 20.1482 17.0267 21.1382V24.6414H21.0969C23.4784 22.2108 24.8524 18.6315 24.8524 14.3795Z" fill="#4285F4"/>
<path fill-rule="evenodd" clip-rule="evenodd" d="M12.7607 28.0241C16.1612 28.0241 19.0121 26.7739 21.0959 24.6416L17.0256 21.1384C15.8979 21.9761 14.4552 22.4712 12.7607 22.4712C9.48043 22.4712 6.70393 20.0151 5.71354 16.7151H1.50586V20.3325C3.57822 24.8954 7.83742 28.0241 12.7607 28.0241Z" fill="#34A853"/>
<path fill-rule="evenodd" clip-rule="evenodd" d="M5.71427 16.7149C5.46238 15.8772 5.31926 14.9823 5.31926 14.0621C5.31926 13.1419 5.46238 12.2471 5.71427 11.4094V7.79202H1.50658C0.653595 9.67687 0.166992 11.8092 0.166992 14.0621C0.166992 16.3151 0.653595 18.4474 1.50658 20.3323L5.71427 16.7149Z" fill="#FBBC05"/>
<path fill-rule="evenodd" clip-rule="evenodd" d="M12.7607 5.65354C14.6098 5.65354 16.27 6.35798 17.5752 7.74146L21.1875 3.73697C19.0064 1.48404 16.1555 0.100555 12.7607 0.100555C7.83742 0.100555 3.57822 3.22927 1.50586 7.79223L5.71354 11.4096C6.70392 8.10955 9.48043 5.65354 12.7607 5.65354Z" fill="#EA4335"/>
</svg>
